# xmcd
#
# Track frame offsets: 
#        150
#        7594
#        28825
#        40253
#        69922
#        87343
#        101883
#        111618
#        117676
#        130581
#        141927
#
# Disc length: 2106 seconds
#
# Revision: 0
# Processed by: cddbd v1.5.1PL0 Copyright (c) Steve Scherf et al.
# Submitted via: ExactAudioCopy v0.95a5
#
DISCID=9708380b
DTITLE=Petunia - Hayride To Hell
DYEAR=2003
DGENRE=Bluegrass
TTITLE0=Come On Down To The Show Tonight
TTITLE1=Hillbilly Hut
TTITLE2=When The Sun Goes Down
TTITLE3=It Ain't
TTITLE4=As The Sun Slowly Creeps
TTITLE5=Mists Of The Morning
TTITLE6=Politics and Police
TTITLE7=Honeybabe
TTITLE8=Teardrops Rollin'
TTITLE9=Zuzu
TTITLE10=Cowboy Waltz
EXTD=
EXTT0=
EXTT1=
EXTT2=
EXTT3=
EXTT4=
EXTT5=
EXTT6=
EXTT7=
EXTT8=
EXTT9=
EXTT10=
PLAYORDER=
